<svg width="30" height="31" viewBox="0 0 30 31" fill="none" xmlns="http://www.w3.org/2000/svg">
<path d="M23.75 16.5031L8.925 16.5031L13.4625 21.9531C13.6747 22.2083 13.7768 22.5374 13.7463 22.868C13.7158 23.1985 13.5553 23.5034 13.3 23.7156C13.0447 23.9277 12.7156 24.0298 12.3851 23.9993C12.0546 23.9689 11.7497 23.8083 11.5375 23.5531L5.2875 16.0531C5.24545 15.9934 5.20785 15.9307 5.175 15.8656C5.175 15.8031 5.175 15.7656 5.0875 15.7031C5.03084 15.5597 5.00118 15.4072 5 15.2531C5.00118 15.099 5.03084 14.9464 5.0875 14.8031C5.0875 14.7406 5.0875 14.7031 5.175 14.6406C5.20785 14.5754 5.24545 14.5127 5.2875 14.4531L11.5375 6.95307C11.655 6.81197 11.8022 6.6985 11.9686 6.62072C12.1349 6.54294 12.3164 6.50278 12.5 6.50307C12.7921 6.5025 13.0751 6.60422 13.3 6.79057C13.4266 6.89551 13.5312 7.02439 13.6079 7.16982C13.6846 7.31525 13.7318 7.47439 13.7469 7.63811C13.762 7.80183 13.7447 7.96692 13.6959 8.12392C13.6471 8.28093 13.5678 8.42676 13.4625 8.55307L8.925 14.0031L23.75 14.0031C24.0815 14.0031 24.3995 14.1348 24.6339 14.3692C24.8683 14.6036 25 14.9216 25 15.2531C25 15.5846 24.8683 15.9025 24.6339 16.137C24.3995 16.3714 24.0815 16.5031 23.75 16.5031Z" fill="white"/>
</svg>
