<svg width="30" height="31" viewBox="0 0 30 31" fill="none" xmlns="http://www.w3.org/2000/svg">
<path d="M6.25 16.5031L21.075 16.5031L16.5375 21.9531C16.3253 22.2083 16.2232 22.5374 16.2537 22.868C16.2842 23.1985 16.4447 23.5034 16.7 23.7156C16.9553 23.9277 17.2844 24.0298 17.6149 23.9993C17.9454 23.9689 18.2503 23.8083 18.4625 23.5531L24.7125 16.0531C24.7545 15.9934 24.7922 15.9307 24.825 15.8656C24.825 15.8031 24.825 15.7656 24.9125 15.7031C24.9692 15.5597 24.9988 15.4072 25 15.2531C24.9988 15.099 24.9692 14.9464 24.9125 14.8031C24.9125 14.7406 24.9125 14.7031 24.825 14.6406C24.7922 14.5754 24.7545 14.5127 24.7125 14.4531L18.4625 6.95307C18.345 6.81197 18.1978 6.6985 18.0314 6.62072C17.8651 6.54294 17.6836 6.50278 17.5 6.50307C17.2079 6.5025 16.9249 6.60422 16.7 6.79057C16.5734 6.89551 16.4688 7.02439 16.3921 7.16982C16.3154 7.31525 16.2682 7.47439 16.2531 7.63811C16.238 7.80183 16.2553 7.96692 16.3041 8.12392C16.3529 8.28093 16.4322 8.42676 16.5375 8.55307L21.075 14.0031L6.25 14.0031C5.91848 14.0031 5.60054 14.1348 5.36612 14.3692C5.1317 14.6036 5 14.9216 5 15.2531C5 15.5846 5.1317 15.9025 5.36612 16.137C5.60054 16.3714 5.91848 16.5031 6.25 16.5031Z" fill="#F53838"/>
</svg>
